<?xml version="1.0" standalone="no"?>
<!DOCTYPE svg PUBLIC "-//W3C//DTD SVG 20010904//EN"
 "http://www.w3.org/TR/2001/REC-SVG-20010904/DTD/svg10.dtd">
<svg version="1.0" xmlns="http://www.w3.org/2000/svg"
 width="200.000000pt" height="200.000000pt" viewBox="0 0 200.000000 200.000000"
 preserveAspectRatio="xMidYMid meet">
<metadata>
Created by potrace 1.14, written by Peter Selinger 2001-2017
</metadata>
<g transform="translate(0.000000,200.000000) scale(0.100000,-0.100000)"
fill="#000000" stroke="none">
<path d="M123 1453 c-23 -4 -23 -5 -23 -203 l0 -198 68 -7 c150 -15 216 34
229 168 12 129 -27 214 -108 237 -33 10 -123 11 -166 3z m150 -65 c40 -21 46
-40 47 -135 0 -81 -3 -95 -22 -117 -21 -23 -48 -30 -100 -27 -16 1 -18 15 -18
146 l0 145 36 0 c19 0 45 -5 57 -12z"/>
<path d="M447 1453 c-4 -3 -7 -95 -7 -204 0 -190 1 -198 20 -204 45 -14 50 5
50 204 0 132 -4 191 -12 199 -13 13 -41 16 -51 5z"/>
<path d="M640 1442 c-60 -33 -75 -71 -75 -192 0 -125 15 -158 83 -192 37 -17
54 -20 110 -14 36 4 69 9 74 12 4 3 8 45 8 93 0 95 -11 118 -48 106 -23 -7
-32 -33 -32 -97 l0 -48 -40 0 c-66 0 -80 25 -80 141 0 131 9 142 116 149 42 3
79 10 81 15 8 26 -18 38 -88 42 -60 4 -81 1 -109 -15z"/>
<path d="M902 1448 c-12 -12 -17 -90 -6 -101 3 -3 16 -1 29 5 30 14 52 64 38
87 -13 20 -45 25 -61 9z"/>
<path d="M1014 1445 c-13 -32 4 -45 56 -45 l50 0 0 -168 c0 -168 5 -192 36
-192 7 0 20 7 28 16 13 13 16 44 16 180 l0 164 44 0 c51 0 76 20 56 45 -10 12
-40 15 -147 15 -110 0 -135 -3 -139 -15z"/>
<path d="M1393 1445 c-49 -21 -57 -45 -61 -202 -5 -161 -1 -189 29 -198 36
-12 49 11 49 86 l0 69 70 0 69 0 3 -71 c2 -54 7 -75 20 -82 12 -8 21 -7 32 2
13 11 16 40 16 178 0 99 -4 172 -11 185 -24 44 -147 63 -216 33z m131 -55 c24
-9 26 -15 26 -65 l0 -55 -70 0 -70 0 0 55 c0 48 3 57 23 65 30 12 60 12 91 0z"/>
<path d="M1682 1448 c-19 -19 -16 -320 3 -358 19 -37 78 -54 153 -45 94 12 80
65 -17 65 -31 0 -62 5 -69 12 -8 8 -12 59 -12 163 0 149 -5 175 -35 175 -6 0
-16 -5 -23 -12z"/>
<path d="M934 1328 c-34 -16 -44 -52 -44 -158 0 -76 4 -102 16 -114 19 -19 36
-20 52 -4 13 13 18 289 5 287 -5 0 -18 -5 -29 -11z"/>
<path d="M104 937 c-2 -7 -3 -98 -2 -202 l3 -190 90 -3 c105 -3 147 13 180 69
16 28 20 52 20 134 0 116 -17 158 -75 187 -44 22 -208 26 -216 5z m191 -72
c23 -22 25 -32 25 -109 0 -47 -5 -96 -11 -109 -14 -30 -48 -47 -94 -47 l-35 0
0 145 0 145 45 0 c35 0 52 -6 70 -25z"/>
<path d="M475 925 c-24 -23 -25 -28 -25 -169 0 -155 7 -187 47 -205 37 -17
168 -14 183 4 26 31 5 45 -68 45 -39 0 -73 5 -80 12 -7 7 -12 33 -12 60 l0 47
78 3 c75 3 77 4 77 28 0 24 -2 25 -77 28 l-78 3 0 42 c0 24 5 48 12 55 7 7 39
12 74 12 65 0 92 15 80 45 -4 12 -24 15 -96 15 -83 0 -93 -2 -115 -25z"/>
<path d="M780 921 c-23 -22 -30 -39 -30 -68 0 -52 17 -73 105 -128 65 -40 75
-50 75 -75 0 -38 -23 -50 -100 -50 -65 0 -85 -15 -59 -46 10 -13 30 -15 97
-12 80 3 85 4 113 36 23 25 29 42 29 76 0 55 -22 83 -92 120 -52 28 -98 64
-98 75 1 26 25 36 97 41 75 5 78 6 78 30 0 25 -1 25 -93 28 -91 3 -93 2 -122
-27z"/>
<path d="M1092 938 c-17 -17 -17 -369 0 -386 16 -16 33 -15 52 4 13 13 16 44
16 185 0 98 -4 179 -10 190 -12 21 -40 25 -58 7z"/>
<path d="M1286 920 c-47 -42 -59 -84 -54 -195 4 -102 17 -133 71 -165 24 -15
50 -20 104 -20 105 0 103 -2 103 95 0 99 -5 115 -34 115 -36 0 -46 -20 -46
-87 l0 -63 -35 0 c-25 0 -44 8 -60 25 -23 22 -25 32 -25 118 0 80 3 98 21 121
19 24 26 26 95 26 57 0 76 3 80 15 13 33 -15 45 -102 45 -79 0 -85 -2 -118
-30z"/>
<path d="M1602 938 c-15 -15 -17 -350 -2 -379 12 -21 40 -25 58 -7 8 8 12 62
12 175 l0 163 53 0 c89 0 91 -4 97 -181 4 -130 7 -153 23 -163 12 -8 22 -8 35
0 14 10 17 30 20 145 4 153 -6 197 -49 233 -28 24 -38 26 -133 26 -66 0 -106
-4 -114 -12z"/>
</g>
</svg>
